<svg width="182" height="211" viewBox="0 0 182 211" fill="none" xmlns="http://www.w3.org/2000/svg">
<path d="M181.34 81C181.34 125.459 135.299 210.5 90.8401 210.5C46.3812 210.5 0.840088 125.459 0.840088 81C0.840088 36.5411 46.3812 0.5 90.8401 0.5C135.299 0.5 181.34 36.5411 181.34 81Z" fill="#98DDF3"/>
<path d="M53.1761 83L44.7102 53.9091H52.4801L56.8693 72.9716H57.1108L62.125 53.9091H68.4602L73.4744 73.0142H73.7159L78.1193 53.9091H85.875L77.4233 83H70.6477L65.4062 65.358H65.179L59.9375 83H53.1761ZM88.7798 83V53.9091H109.064V59.6193H95.8111V65.5852H108.027V71.3097H95.8111V77.2898H109.064V83H88.7798ZM113.467 83V53.9091H125.598C127.776 53.9091 129.599 54.2169 131.067 54.8324C132.544 55.4479 133.652 56.3097 134.391 57.4176C135.139 58.5256 135.513 59.8087 135.513 61.267C135.513 62.375 135.281 63.3646 134.817 64.2358C134.353 65.0975 133.714 65.8125 132.899 66.3807C132.085 66.9489 131.143 67.3466 130.072 67.5739V67.858C131.247 67.9148 132.331 68.232 133.325 68.8097C134.329 69.3873 135.134 70.1922 135.74 71.2244C136.346 72.2472 136.649 73.4593 136.649 74.8608C136.649 76.4233 136.251 77.8201 135.456 79.0511C134.661 80.2727 133.51 81.2386 132.004 81.9489C130.499 82.6496 128.671 83 126.521 83H113.467ZM120.499 77.3324H124.845C126.37 77.3324 127.492 77.0436 128.212 76.4659C128.941 75.8883 129.305 75.0833 129.305 74.0511C129.305 73.303 129.13 72.6591 128.78 72.1193C128.429 71.5701 127.932 71.1487 127.288 70.8551C126.644 70.5521 125.873 70.4006 124.973 70.4006H120.499V77.3324ZM120.499 65.8693H124.391C125.158 65.8693 125.839 65.7415 126.436 65.4858C127.033 65.2301 127.497 64.8608 127.828 64.3778C128.169 63.8949 128.339 63.3125 128.339 62.6307C128.339 61.6553 127.994 60.8883 127.303 60.3295C126.611 59.7708 125.679 59.4915 124.504 59.4915H120.499V65.8693Z" fill="#F7F896"/>
<path d="M65.2926 125.412C65.1316 124.815 64.8949 124.29 64.5824 123.835C64.2699 123.371 63.8864 122.978 63.4318 122.656C62.9773 122.334 62.4564 122.093 61.8693 121.932C61.2822 121.761 60.6383 121.676 59.9375 121.676C58.5265 121.676 57.3049 122.017 56.2727 122.699C55.25 123.381 54.4593 124.375 53.9006 125.682C53.3419 126.979 53.0625 128.556 53.0625 130.412C53.0625 132.277 53.3324 133.868 53.8722 135.185C54.4119 136.501 55.1932 137.505 56.2159 138.196C57.2386 138.887 58.4792 139.233 59.9375 139.233C61.2254 139.233 62.3144 139.025 63.2045 138.608C64.1042 138.182 64.786 137.58 65.25 136.804C65.714 136.027 65.946 135.114 65.946 134.062L67.2528 134.219H60.179V129.091H72.7216V132.94C72.7216 135.545 72.1676 137.775 71.0597 139.631C69.9612 141.487 68.446 142.912 66.5142 143.906C64.5919 144.901 62.3807 145.398 59.8807 145.398C57.1061 145.398 54.6676 144.796 52.5653 143.594C50.4631 142.391 48.8248 140.677 47.6506 138.452C46.4763 136.217 45.8892 133.565 45.8892 130.497C45.8892 128.111 46.2443 125.994 46.9545 124.148C47.6648 122.292 48.6544 120.72 49.9233 119.432C51.2017 118.144 52.679 117.169 54.3551 116.506C56.0407 115.843 57.8542 115.511 59.7955 115.511C61.4811 115.511 63.0483 115.753 64.4972 116.236C65.9555 116.719 67.2434 117.401 68.3608 118.281C69.4877 119.162 70.4015 120.208 71.1023 121.42C71.803 122.633 72.2386 123.963 72.4091 125.412H65.2926ZM74.1669 115.909H82.022L88.1726 128.082H88.4283L94.5788 115.909H102.434L91.7947 135.284V145H84.8061V135.284L74.1669 115.909ZM105.381 115.909H114.089L121.475 133.92H121.816L129.202 115.909H137.91V145H131.063V127.131H130.822L123.833 144.815H119.458L112.469 127.031H112.228V145H105.381V115.909Z" fill="#F7F896"/>
<line x1="42" y1="100.5" x2="140" y2="100.5" stroke="black"/>
<rect x="140" y="95" width="9" height="11" fill="#222F3C"/>
<rect x="33" y="95" width="9" height="11" fill="#222F3C"/>
</svg>
